# xmcd
#
# Track frame offsets: 
#        150
#        22057
#        35853
#        57502
#        85050
#        102561
#        120104
#        133613
#        156197
#
# Disc length: 2422 seconds
#
# Revision: 1
# Processed by: cddbd v1.5.2PL0 Copyright (c) Steve Scherf et al.
# Submitted via: ExactAudioCopy v0.95b3
#
DISCID=76097409
DTITLE=Steppenwolf - Steppenwolf 7
DYEAR=1970
DGENRE=
TTITLE0=Ball Crusher
TTITLE1=Forty Days and Forty Nights
TTITLE2=Fat Jack
TTITLE3=Renegade
TTITLE4=Foggy Mental Breakdown
TTITLE5=Snowblind Friend
TTITLE6=Who Needs Ya
TTITLE7=Earschplittenloudenboomer
TTITLE8=Hippo Stomp
EXTD=
EXTT0=
EXTT1=
EXTT2=
EXTT3=
EXTT4=
EXTT5=
EXTT6=
EXTT7=
EXTT8=
PLAYORDER=
